<svg xmlns="http://www.w3.org/2000/svg" viewBox="0 0 245.04 348.19"><defs><style>.cls-1{fill:#fff;}.cls-1,.cls-2{stroke:#000;stroke-miterlimit:10;stroke-width:3px;}.cls-2{fill:none;}</style></defs><g id="Layer_1" data-name="Layer 1"><rect class="cls-1" x="22.95" y="1.5" width="220.6" height="309.96"/><line class="cls-2" x1="61.24" y1="53.07" x2="207.8" y2="53.07"/><line class="cls-2" x1="60.54" y1="80.1" x2="207.1" y2="80.1"/><line class="cls-2" x1="60.89" y1="102.59" x2="207.45" y2="102.59"/><line class="cls-2" x1="60.19" y1="129.61" x2="206.74" y2="129.61"/><line class="cls-2" x1="59.89" y1="152.59" x2="206.45" y2="152.59"/><line class="cls-2" x1="59.19" y1="179.61" x2="205.74" y2="179.61"/><line class="cls-2" x1="59.04" y1="201.1" x2="205.6" y2="201.1"/><line class="cls-2" x1="58.74" y1="224.07" x2="205.3" y2="224.07"/><line class="cls-2" x1="58.04" y1="251.1" x2="204.6" y2="251.1"/></g><g id="Layer_3" data-name="Layer 3"><rect class="cls-1" x="12.73" y="12.73" width="220.6" height="309.96"/><line class="cls-2" x1="51.03" y1="64.31" x2="197.59" y2="64.31"/><line class="cls-2" x1="50.33" y1="91.33" x2="196.88" y2="91.33"/><line class="cls-2" x1="50.68" y1="113.82" x2="197.23" y2="113.82"/><line class="cls-2" x1="49.98" y1="140.84" x2="196.53" y2="140.84"/><line class="cls-2" x1="49.68" y1="163.82" x2="196.23" y2="163.82"/><line class="cls-2" x1="48.98" y1="190.84" x2="195.53" y2="190.84"/><line class="cls-2" x1="48.83" y1="212.33" x2="195.38" y2="212.33"/><line class="cls-2" x1="48.53" y1="235.31" x2="195.09" y2="235.31"/><line class="cls-2" x1="47.83" y1="262.33" x2="194.38" y2="262.33"/></g><g id="Layer_2" data-name="Layer 2"><rect class="cls-1" x="1.5" y="24.22" width="220.6" height="322.47"/><line class="cls-2" x1="39.8" y1="75.8" x2="186.35" y2="75.8"/><line class="cls-2" x1="39.1" y1="102.82" x2="185.65" y2="102.82"/><line class="cls-2" x1="39.45" y1="125.31" x2="186" y2="125.31"/><line class="cls-2" x1="38.74" y1="152.33" x2="185.3" y2="152.33"/><line class="cls-2" x1="38.45" y1="175.31" x2="185" y2="175.31"/><line class="cls-2" x1="37.74" y1="202.33" x2="184.3" y2="202.33"/><line class="cls-2" x1="37.6" y1="223.82" x2="184.15" y2="223.82"/><line class="cls-2" x1="37.3" y1="246.8" x2="183.85" y2="246.8"/><line class="cls-2" x1="36.6" y1="273.82" x2="183.15" y2="273.82"/></g></svg>